<?xml version="1.0" encoding="UTF-8"?>
<!DOCTYPE svg PUBLIC "-//W3C//DTD SVG 1.1//EN" "http://www.w3.org/Graphics/SVG/1.1/DTD/svg11.dtd">
<svg version="1.1" xmlns="http://www.w3.org/2000/svg" xmlns:xlink="http://www.w3.org/1999/xlink" x="0" y="0" width="500" height="500" viewBox="0, 0, 500, 500">
  <g id="Layer_1">
    <path d="M0,0 L500,0 L500,500 L0,500 L0,0 z" fill="#3B82F6"/>
    <g>
      <path d="M39.683,187.861 L78.113,187.861 L78.113,207.363 Q84.614,196.082 92.931,190.633 Q101.248,185.184 112.72,185.184 Q124.001,185.184 132.318,190.824 Q140.635,196.465 144.841,206.025 Q157.078,185.184 180.404,185.184 Q191.494,185.184 199.811,191.111 Q208.128,197.038 212.716,208.223 Q217.305,219.408 217.305,234.513 L217.305,282.312 L176.962,282.312 L176.962,234.513 Q176.962,224.762 173.617,219.791 Q170.271,214.82 164.343,214.82 Q157.843,214.82 153.158,220.364 Q148.474,225.909 148.474,233.748 L148.474,282.312 L108.514,282.312 L108.514,234.513 Q108.514,224.762 105.168,219.791 Q101.822,214.82 95.703,214.82 Q89.203,214.82 84.614,220.364 Q80.025,225.909 80.025,233.748 L80.025,282.312 L39.683,282.312 z" fill="#FFFFFF"/>
      <path d="M223.615,186.522 L267.973,186.522 L282.695,243.882 L297.035,186.522 L332.024,186.522 L301.623,282.312 L255.162,282.312 z" fill="#FFFFFF"/>
      <path d="M341.966,187.861 L382.309,187.861 L382.309,204.495 Q391.486,185.184 413.474,185.184 Q426.284,185.184 437.087,191.589 Q447.89,197.994 454.103,209.275 Q460.317,220.556 460.317,234.513 Q460.317,248.47 453.912,259.751 Q447.507,271.032 436.704,277.437 Q425.902,283.842 413.665,283.842 Q391.869,283.842 382.309,264.531 L382.309,307.168 L341.966,314.816 z M401.429,253.633 Q409.268,253.633 414.812,247.897 Q420.357,242.161 420.357,234.513 Q420.357,226.483 414.717,220.938 Q409.076,215.393 401.429,215.393 Q393.589,215.393 388.045,220.842 Q382.5,226.291 382.5,233.748 L382.5,234.513 Q382.5,242.543 388.14,248.088 Q393.781,253.633 401.429,253.633 z" fill="#FFFFFF"/>
    </g>
  </g>
</svg>
